<svg xmlns="http://www.w3.org/2000/svg"  viewBox="0 0 64 64" width="64px" height="64px"><linearGradient id="0Kn2OMRUR7A8XFJWO9kKra" x1="32" x2="32" y1="4" y2="59.845" gradientUnits="userSpaceOnUse" spreadMethod="reflect"><stop offset="0" stop-color="#1a6dff"/><stop offset="1" stop-color="#c822ff"/></linearGradient><path fill="url(#0Kn2OMRUR7A8XFJWO9kKra)" d="M39.425,21.445l8.458-15.977l-1.768-0.936l-8.607,16.257C35.757,20.286,33.913,20,32,20 s-3.757,0.286-5.509,0.789L17.884,4.532l-1.768,0.936l8.458,15.977C17.216,24.401,12,31.597,12,40c0,11.028,8.972,20,20,20 s20-8.972,20-20C52,31.597,46.784,24.401,39.425,21.445z M32,58c-9.925,0-18-8.075-18-18s8.075-18,18-18s18,8.075,18,18 S41.925,58,32,58z"/><linearGradient id="0Kn2OMRUR7A8XFJWO9kKrb" x1="46" x2="46" y1="4" y2="10" gradientUnits="userSpaceOnUse" spreadMethod="reflect"><stop offset="0" stop-color="#6dc7ff"/><stop offset="1" stop-color="#e6abff"/></linearGradient><path fill="url(#0Kn2OMRUR7A8XFJWO9kKrb)" d="M46 4A3 3 0 1 0 46 10A3 3 0 1 0 46 4Z"/><linearGradient id="0Kn2OMRUR7A8XFJWO9kKrc" x1="18" x2="18" y1="4" y2="10" gradientUnits="userSpaceOnUse" spreadMethod="reflect"><stop offset="0" stop-color="#6dc7ff"/><stop offset="1" stop-color="#e6abff"/></linearGradient><path fill="url(#0Kn2OMRUR7A8XFJWO9kKrc)" d="M18 4A3 3 0 1 0 18 10A3 3 0 1 0 18 4Z"/><linearGradient id="0Kn2OMRUR7A8XFJWO9kKrd" x1="32" x2="32" y1="4.503" y2="59.839" gradientUnits="userSpaceOnUse" spreadMethod="reflect"><stop offset="0" stop-color="#1a6dff"/><stop offset="1" stop-color="#c822ff"/></linearGradient><path fill="url(#0Kn2OMRUR7A8XFJWO9kKrd)" d="M44.98,32.48c-4.15-7.16-13.35-9.6-20.5-5.46c-7.16,4.15-9.6,13.35-5.46,20.5 C21.8,52.32,26.85,55,32.03,55c2.55,0,5.13-0.65,7.49-2.02C46.68,48.83,49.12,39.63,44.98,32.48z M38.88,51.02l-2.5-5l-1.02,0.43 l-0.78,0.45l2.53,5.05c-5.96,2.55-13.03,0.31-16.36-5.43c-3.59-6.2-1.47-14.17,4.73-17.77c2.05-1.18,4.29-1.75,6.5-1.75 c4.49,0,8.86,2.33,11.27,6.48C46.77,39.56,44.79,47.32,38.88,51.02z"/><linearGradient id="0Kn2OMRUR7A8XFJWO9kKre" x1="35.5" x2="35.5" y1="32.191" y2="50.417" gradientUnits="userSpaceOnUse" spreadMethod="reflect"><stop offset="0" stop-color="#6dc7ff"/><stop offset="1" stop-color="#e6abff"/></linearGradient><path fill="url(#0Kn2OMRUR7A8XFJWO9kKre)" d="M28 32L28 50.741 35.359 46.453 43 43.25z"/><linearGradient id="0Kn2OMRUR7A8XFJWO9kKrf" x1="39.685" x2="39.685" y1="43.278" y2="45.972" gradientUnits="userSpaceOnUse" spreadMethod="reflect"><stop offset="0" stop-color="#6dc7ff"/><stop offset="1" stop-color="#e6abff"/></linearGradient><path fill="url(#0Kn2OMRUR7A8XFJWO9kKrf)" d="M43 43.25L36.38 46.02 36.37 46.01z"/></svg>